<?xml version="1.0" encoding="UTF-8"?>
<svg version="1.1" xmlns="http://www.w3.org/2000/svg" width="1024" height="1024">
<path d="M0 0 C337.92 0 675.84 0 1024 0 C1024 337.92 1024 675.84 1024 1024 C686.08 1024 348.16 1024 0 1024 C0 686.08 0 348.16 0 0 Z " fill="#3D5EE8" transform="translate(0,0)"/>
<path d="M0 0 C76.85217391 0 76.85217391 0 90 12 C97.71774699 20.96445996 99.6069758 29.34213724 99.3125 41.046875 C98.64848406 49.44667664 95.33252456 56.38267822 89 62 C86.7175864 63.54763256 84.47575816 64.76212092 82 66 C83.66227594 67.10818396 85.33623673 68.20110159 87.05078125 69.2265625 C94.61715503 73.9049076 99.74506591 79.22514336 102 88 C103.00888928 98.08215942 103.44890858 109.1348478 98 118 C97.59910156 118.69996094 97.19820313 119.39992188 96.78515625 120.12109375 C89.80770399 130.81985389 78.94562697 133.58696372 67 137 C44.89 137 22.78 137 0 137 C0 91.79 0 46.58 0 0 Z " fill="#FBFCFE" transform="translate(321,439)"/>
<path d="M0 0 C76.45601436 0 76.45601436 0 90.51171875 12.17578125 C100.40473048 22.76368105 101.48729149 33.08381064 101.2734375 47.02734375 C100.89603983 57.00969901 97.02783876 64.9309825 90 72 C85.96285567 75.23926276 82.1359018 77.97977571 77 79 C77.3403125 79.6084375 77.680625 80.216875 78.03125 80.84375 C80.9866358 86.18859665 83.80557638 91.58203952 86.5 97.0625 C90.84170697 105.87931834 95.54521593 114.50164831 100.25195312 123.12719727 C100.83654297 124.20283936 101.42113281 125.27848145 102.0234375 126.38671875 C102.54856934 127.34795654 103.07370117 128.30919434 103.61474609 129.29956055 C105 132 105 132 107 137 C96.77 137 86.54 137 76 137 C71.5625 128.5625 71.5625 128.5625 70.0793457 125.7421875 C67.90794966 121.61583016 65.73264153 117.49169204 63.54296875 113.375 C59.62376815 106.00499308 55.76184234 98.62421101 52.09375 91.125 C51.17379203 89.0720883 51.17379203 89.0720883 50 88 C39.11 87.505 39.11 87.505 28 87 C28 103.5 28 120 28 137 C18.76 137 9.52 137 0 137 C0 91.79 0 46.58 0 0 Z " fill="#FDFDFE" transform="translate(445,439)"/>
<path d="M0 0 C8.58 0 17.16 0 26 0 C30.49206349 8.98412698 30.49206349 8.98412698 31.5703125 12.2421875 C31.94591309 13.35219116 31.94591309 13.35219116 32.32910156 14.48461914 C32.72307129 15.66785767 32.72307129 15.66785767 33.125 16.875 C35.67747574 24.33624178 38.38769536 31.71482838 41.25 39.0625 C47.35201148 54.75743542 53.18708124 70.55190956 59.04785156 86.33813477 C63.40993365 98.08204268 67.8098967 109.80977549 72.28662109 121.51049805 C72.71572784 122.63819107 72.71572784 122.63819107 73.15350342 123.78866577 C73.72471986 125.28087555 74.30373233 126.77012114 74.88995361 128.25650024 C76.07882663 131.31018266 77 133.69215925 77 137 C67.1 137 57.2 137 47 137 C45.515 132.58625 44.03 128.1725 42.5 123.625 C42.03013672 122.23361816 41.56027344 120.84223633 41.07617188 119.40869141 C40.71072266 118.31733887 40.34527344 117.22598633 39.96875 116.1015625 C39.59169922 114.98088379 39.21464844 113.86020508 38.82617188 112.70556641 C38 110 38 110 38 108 C21.5 108 5 108 -12 108 C-12.66 110.97 -13.32 113.94 -14 117 C-14.45896144 118.59158593 -14.94251068 120.17678274 -15.47265625 121.74609375 C-15.73240234 122.52017578 -15.99214844 123.29425781 -16.25976562 124.09179688 C-16.52466797 124.86587891 -16.78957031 125.63996094 -17.0625 126.4375 C-17.33126953 127.23865234 -17.60003906 128.03980469 -17.87695312 128.86523438 C-19.84411526 134.68823052 -19.84411526 134.68823052 -21 137 C-30.9 137 -40.8 137 -51 137 C-48.68464537 130.0539361 -46.40454467 123.26697917 -43.6875 116.5 C-41.13602111 110.04950791 -38.75877421 103.55851 -36.5 97 C-34.03775101 89.85459607 -31.4016743 82.8048689 -28.62060547 75.77807617 C-26.48127305 70.33461084 -24.52398178 64.84393775 -22.625 59.3125 C-19.76113858 50.98126677 -16.60256028 42.7912054 -13.34960938 34.60498047 C-10.46086123 27.29268187 -7.80056627 19.92083121 -5.29492188 12.46875 C-5.03517578 11.70433594 -4.77542969 10.93992187 -4.5078125 10.15234375 C-4.28754395 9.49226318 -4.06727539 8.83218262 -3.84033203 8.15209961 C-2.74777524 5.35404959 -1.34333646 2.68667292 0 0 Z " fill="#FCFDFE" transform="translate(898,439)"/>
<path d="M0 0 C1.12591553 0.00523682 2.25183105 0.01047363 3.41186523 0.01586914 C4.62680664 0.0190918 5.84174805 0.02231445 7.09350586 0.02563477 C8.37290039 0.03401367 9.65229492 0.04239258 10.97045898 0.05102539 C12.2537207 0.05553711 13.53698242 0.06004883 14.85913086 0.06469727 C18.04211921 0.07652994 21.22501661 0.09301471 24.40795898 0.11352539 C24.6084082 0.66999756 24.80885742 1.22646973 25.01538086 1.79980469 C29.41015823 13.98385158 33.90213436 26.1242278 38.53686523 38.21899414 C40.45082623 43.21434484 42.3239831 48.22435746 44.19189453 53.23706055 C45.74126883 57.37882806 47.33949552 61.49909431 48.95996094 65.61352539 C52.04270321 73.44659758 54.90283747 81.32821239 57.63769531 89.2890625 C59.93295203 95.9047275 62.45046229 102.41772795 65.03295898 108.92602539 C74.40795898 132.57968932 74.40795898 132.57968932 74.40795898 137.11352539 C64.50795898 137.11352539 54.60795898 137.11352539 44.40795898 137.11352539 C42.92295898 132.69977539 41.43795898 128.28602539 39.90795898 123.73852539 C39.4380957 122.34714355 38.96823242 120.95576172 38.48413086 119.5222168 C38.11868164 118.43086426 37.75323242 117.33951172 37.37670898 116.21508789 C36.9996582 115.09440918 36.62260742 113.97373047 36.23413086 112.8190918 C35.40795898 110.11352539 35.40795898 110.11352539 35.40795898 108.11352539 C19.23795898 108.44352539 3.06795898 108.77352539 -13.59204102 109.11352539 C-16.51218878 117.95314327 -16.51218878 117.95314327 -19.42578125 126.79492188 C-19.97020874 128.43569702 -19.97020874 128.43569702 -20.52563477 130.10961914 C-20.89744873 131.23553467 -21.2692627 132.3614502 -21.65234375 133.52148438 C-22.59204102 136.11352539 -22.59204102 136.11352539 -23.59204102 137.11352539 C-25.73762928 137.20128144 -27.88608523 137.22047758 -30.03344727 137.21118164 C-31.33862305 137.20795898 -32.64379883 137.20473633 -33.98852539 137.20141602 C-35.37719791 137.1930594 -36.76586979 137.18459444 -38.15454102 137.17602539 C-39.54711757 137.17101205 -40.93969583 137.16644886 -42.33227539 137.16235352 C-45.75223972 137.15051973 -49.17211946 137.13403419 -52.59204102 137.11352539 C-51.87006529 132.3918622 -50.63944046 128.17532641 -48.90454102 123.73852539 C-48.35498578 122.30235658 -47.80550863 120.86615789 -47.25610352 119.42993164 C-46.97669922 118.70563965 -46.69729492 117.98134766 -46.40942383 117.23510742 C-42.49632216 107.07834115 -38.76732291 96.85824017 -35.09204102 86.61352539 C-32.11136324 78.30499434 -29.0945444 70.01389144 -25.97094727 61.75805664 C-24.82232935 58.72219116 -23.68491282 55.6824364 -22.55151367 52.64086914 C-20.459047 47.03023587 -18.3332357 41.43417046 -16.16625977 35.85180664 C-9.9541982 19.83798398 -9.9541982 19.83798398 -4.43188477 3.57836914 C-3.26129945 0.14283736 -3.26129945 0.14283736 0 0 Z " fill="#FCFDFE" transform="translate(233.592041015625,438.886474609375)"/>
<path d="M0 0 C6.99347841 6.43400014 13.24065942 16.66126448 14.25 26.25 C14.25 28.56 14.25 30.87 14.25 33.25 C5.34 33.25 -3.57 33.25 -12.75 33.25 C-13.74 29.95 -14.73 26.65 -15.75 23.25 C-19.04922858 17.10660886 -22.90777944 14.19740685 -29.5 12 C-38.14029131 10.19309497 -46.04893066 10.64230137 -53.75 15.25 C-61.43889355 21.89508583 -65.98817082 31.22184352 -66.94615173 41.31704712 C-67.02768584 43.45969046 -67.05344538 45.59409725 -67.05078125 47.73828125 C-67.05506638 48.52212692 -67.0593515 49.3059726 -67.06376648 50.11357117 C-67.06947204 51.76149537 -67.07003813 53.40944474 -67.06567383 55.05737305 C-67.06252108 57.54585908 -67.08599463 60.03314536 -67.11132812 62.52148438 C-67.14612934 71.18823264 -66.82687243 79.02580984 -63.75 87.25 C-63.37359375 88.25675781 -62.9971875 89.26351562 -62.609375 90.30078125 C-58.94256041 97.77643494 -54.59365072 102.42971746 -46.79296875 105.63696289 C-42.89302492 106.80722567 -38.98192267 106.77781898 -34.9375 106.75 C-33.61335083 106.74794556 -33.61335083 106.74794556 -32.26245117 106.74584961 C-25.31164914 106.58226359 -18.86997941 105.36997941 -13.75 100.25 C-13.59235595 98.47130274 -13.49899323 96.68681524 -13.43359375 94.90234375 C-13.39548584 93.93031006 -13.35737793 92.95827637 -13.31811523 91.95678711 C-13.27501221 90.71292236 -13.23190918 89.46905762 -13.1875 88.1875 C-13.043125 84.248125 -12.89875 80.30875 -12.75 76.25 C-21.33 76.25 -29.91 76.25 -38.75 76.25 C-38.75 69.65 -38.75 63.05 -38.75 56.25 C-20.93 56.25 -3.11 56.25 15.25 56.25 C15.48009017 63.94012469 15.67892145 71.61825199 15.79931641 79.30908203 C15.84950499 81.92244993 15.91767414 84.53553841 16.00439453 87.14794922 C16.12617991 90.91183386 16.18251001 94.672 16.2265625 98.4375 C16.27817535 99.59926758 16.32978821 100.76103516 16.38296509 101.95800781 C16.38631993 106.84623718 16.3616913 109.97128969 13.07298279 113.75408936 C6.72615741 118.90751529 -0.14868092 122.32708094 -7.75 125.25 C-8.81089844 125.66507813 -9.87179688 126.08015625 -10.96484375 126.5078125 C-26.49690495 131.59620826 -47.76153882 132.35841217 -62.75 125.25 C-63.54535156 124.899375 -64.34070313 124.54875 -65.16015625 124.1875 C-78.22513351 117.73344606 -87.5703564 105.94842016 -92.68359375 92.515625 C-96.45388603 80.96996807 -97.02915273 70.0305847 -97.0625 57.9375 C-97.06805908 56.66213379 -97.07361816 55.38676758 -97.0793457 54.07275391 C-96.93479865 35.10373235 -92.35540068 17.13440722 -79.125 2.9375 C-58.4696535 -16.46978931 -22.34185002 -17.58206458 0 0 Z " fill="#FDFDFE" transform="translate(153.75,448.75)"/>
<path d="M0 0 C7.87570183 6.68559577 12.39408519 13.75139207 14.19921875 23.92578125 C14.19921875 26.23578125 14.19921875 28.54578125 14.19921875 30.92578125 C4.95921875 30.92578125 -4.28078125 30.92578125 -13.80078125 30.92578125 C-14.79078125 27.29578125 -15.78078125 23.66578125 -16.80078125 19.92578125 C-21.69293207 14.6644115 -25.91520171 12.26928254 -33.203125 11.625 C-41.72655766 11.59674553 -47.19740963 11.6357463 -53.67578125 17.55078125 C-54.72765625 18.72640625 -54.72765625 18.72640625 -55.80078125 19.92578125 C-56.29578125 20.42078125 -56.29578125 20.42078125 -56.80078125 20.92578125 C-56.97958508 22.83693038 -57.06881708 24.75680112 -57.11328125 26.67578125 C-57.15066406 27.7225 -57.18804688 28.76921875 -57.2265625 29.84765625 C-56.68901022 33.73381405 -55.58410466 35.18846319 -52.80078125 37.92578125 C-45.72940908 42.46047005 -37.95354644 45.33435256 -29.98828125 47.86328125 C-13.80031737 53.05199695 2.35810425 59.42911747 11.38671875 74.80078125 C15.64766955 83.1950139 15.73118035 95.98588692 13.07421875 104.92578125 C9.36933092 113.94786921 2.31179472 121.13071446 -6.54296875 125.1796875 C-9.28066767 126.20727255 -11.99002037 127.11888255 -14.80078125 127.92578125 C-15.97898437 128.28414062 -17.1571875 128.6425 -18.37109375 129.01171875 C-23.9003596 130.36259301 -29.45114845 130.2552439 -35.11328125 130.23828125 C-36.70946289 130.26245117 -36.70946289 130.26245117 -38.33789062 130.28710938 C-54.20464228 130.29679013 -68.85650239 124.43350531 -80.55078125 113.67578125 C-84.394601 109.66251237 -86.62616255 104.99174691 -88.80078125 99.92578125 C-89.36345703 98.84683594 -89.36345703 98.84683594 -89.9375 97.74609375 C-90.80078125 94.92578125 -90.80078125 94.92578125 -90.80078125 84.92578125 C-81.23078125 84.92578125 -71.66078125 84.92578125 -61.80078125 84.92578125 C-61.47078125 87.89578125 -61.14078125 90.86578125 -60.80078125 93.92578125 C-58.689906 99.70291352 -55.13397873 103.09666523 -49.7578125 106.046875 C-45.30828572 107.36938956 -40.98004214 107.25423412 -36.36328125 107.23828125 C-34.97012695 107.26245117 -34.97012695 107.26245117 -33.54882812 107.28710938 C-28.21256252 107.29090743 -24.38947797 106.95605267 -19.80078125 103.92578125 C-15.30913217 98.94854848 -14.47910895 95.95601933 -14.6015625 89.390625 C-14.877228 85.97994004 -15.47005232 84.46839462 -17.80078125 81.92578125 C-25.10350516 76.16524748 -32.99601429 72.70457875 -41.86328125 70.11328125 C-58.48951892 65.115687 -73.35739481 57.98776188 -83.55078125 43.42578125 C-87.54682512 35.4336935 -88.38827762 25.98713104 -86.11328125 17.30078125 C-85.16709446 15.02993294 -84.09976191 13.01386231 -82.80078125 10.92578125 C-82.37667969 10.24 -81.95257812 9.55421875 -81.515625 8.84765625 C-73.86868171 -2.31389886 -62.5053335 -7.55167996 -49.55078125 -10.38671875 C-31.91908273 -13.06364816 -14.64089373 -10.84283762 0 0 Z " fill="#FCFCFE" transform="translate(766.80078125,448.07421875)"/>
<path d="M0 0 C10.23 0 20.46 0 31 0 C32.010625 2.35125 33.02125 4.7025 34.0625 7.125 C36.34948311 12.3984068 38.74680932 17.57268394 41.375 22.6875 C45.66294403 31.10851875 49.2679877 39.81113359 52.93896484 48.51416016 C54.58159083 52.36257657 56.28565859 56.183088 58 60 C58.66 60 59.32 60 60 60 C60.50789062 58.85144531 61.01578125 57.70289063 61.5390625 56.51953125 C62.23432286 54.95049773 62.92963839 53.38148865 63.625 51.8125 C63.95628906 51.06291016 64.28757812 50.31332031 64.62890625 49.54101562 C67.68053602 42.66045417 70.83702153 35.82994275 74 29 C74.84582238 27.16735389 75.69094704 25.33438698 76.53607178 23.50141907 C77.67290148 21.03723057 78.81220925 18.57419248 79.9519043 16.11132812 C80.53539543 14.84933199 81.11805133 13.58694941 81.69995117 12.32421875 C82.55441882 10.47039443 83.41167149 8.61788156 84.26953125 6.765625 C84.77073486 5.68055664 85.27193848 4.59548828 85.78833008 3.47753906 C87 1 87 1 88 0 C90.21855264 -0.08783542 92.43988496 -0.10694609 94.66015625 -0.09765625 C95.65685585 -0.09553383 95.65685585 -0.09553383 96.6736908 -0.09336853 C98.80333899 -0.08775518 100.93288339 -0.07520054 103.0625 -0.0625 C104.50325369 -0.05748671 105.94400903 -0.05292351 107.38476562 -0.04882812 C110.92321102 -0.03778145 114.46159539 -0.02050792 118 0 C117.11823699 3.95963521 115.38484846 7.22203537 113.4375 10.75 C110.52107724 16.11874932 107.70601956 21.52220587 105 27 C102.41834898 32.21507397 99.76068068 37.37744854 97 42.5 C93.95214583 48.15712552 90.99657501 53.85171708 88.21505737 59.64530945 C86.46921083 63.23843741 84.62751921 66.65554538 82.44921875 70.00610352 C73.83142431 83.74194764 73.62074336 96.30851519 73.875 112.1875 C73.87694697 114.60612041 73.87437165 117.02474885 73.8671875 119.44335938 C73.8511508 125.29876041 73.92734088 131.14239245 74 137 C64.43 137 54.86 137 45 137 C45.03222656 133.58785156 45.06445312 130.17570313 45.09765625 126.66015625 C45.0982409 123.29713743 45.08339403 119.93450806 45.06713867 116.5715332 C45.06408641 114.26257924 45.07667982 111.95354264 45.10620117 109.64477539 C45.28032524 95.0468466 44.33492599 84.14353377 36.15415955 71.82873535 C34.14720112 68.64876268 32.56497767 65.25998555 30.9375 61.875 C28.06725832 56.06962319 25.07204152 50.34468138 21.99975586 44.64404297 C19.22928501 39.48196909 16.61026144 34.25232265 14.01098633 29.00244141 C11.34029912 23.62950015 8.55009163 18.32724905 5.70117188 13.046875 C0 2.47422362 0 2.47422362 0 0 Z " fill="#FCFCFE" transform="translate(552,439)"/>
<path d="M0 0 C9.57 0 19.14 0 29 0 C29 45.21 29 90.42 29 137 C19.43 137 9.86 137 0 137 C0 91.79 0 46.58 0 0 Z " fill="#F9FAFE" transform="translate(802,439)"/>
<path d="M0 0 C4.310625 -0.04125 8.62125 -0.0825 13.0625 -0.125 C14.40836182 -0.14320801 15.75422363 -0.16141602 17.14086914 -0.18017578 C26.11638344 -0.22173219 32.74997592 0.19998073 40 6 C45.38274765 13.12850364 45.72301855 19.27213323 45 28 C43.50343887 33.67070453 40.51532126 36.91532345 35.68359375 40.08984375 C31.73290514 42.22559884 28.33509815 42.11565346 23.92578125 42.09765625 C22.67450439 42.09515869 21.42322754 42.09266113 20.1340332 42.09008789 C17.74737427 42.07643188 17.74737427 42.07643188 15.3125 42.0625 C10.259375 42.041875 5.20625 42.02125 0 42 C0 28.14 0 14.28 0 0 Z " fill="#3E5FE8" transform="translate(473,461)"/>
<path d="M0 0 C4.74375 -0.0825 9.4875 -0.165 14.375 -0.25 C15.8501709 -0.28641602 17.3253418 -0.32283203 18.84521484 -0.36035156 C26.52600099 -0.42466064 33.30992376 -0.10659108 40 4 C45.43909423 10.36772007 45.60737976 16.92070321 45 25 C44.10200654 29.42405955 42.09479757 32.19980181 38.5 34.875 C33.97639184 37.87089838 30.01211503 38.1378295 24.70703125 38.09765625 C23.41514893 38.09515869 22.1232666 38.09266113 20.79223633 38.09008789 C19.14892334 38.08098389 17.50561035 38.07187988 15.8125 38.0625 C7.9853125 38.0315625 7.9853125 38.0315625 0 38 C0 25.46 0 12.92 0 0 Z " fill="#3E5FE8" transform="translate(350,516)"/>
<path d="M0 0 C5.6615625 -0.061875 5.6615625 -0.061875 11.4375 -0.125 C12.60853271 -0.14320801 13.77956543 -0.16141602 14.98608398 -0.18017578 C23.77619299 -0.22629466 32.0552129 0.04732534 39 6 C42.79657401 11.18865115 42.67247954 16.81871545 42 23 C40.08613674 28.54013049 36.99580137 31.53070704 31.76293945 34.09716797 C28.43183149 35.18565761 25.67070636 35.22617362 22.16796875 35.1953125 C21.00289795 35.19031738 19.83782715 35.18532227 18.63745117 35.18017578 C16.43472534 35.15286377 16.43472534 35.15286377 14.1875 35.125 C9.505625 35.08375 4.82375 35.0425 0 35 C0 23.45 0 11.9 0 0 Z " fill="#3E5FE8" transform="translate(350,461)"/>
<path d="M0 0 C2.34601642 3.51902463 3.45419055 7.11321289 4.71484375 11.10546875 C4.97125137 11.90350418 5.227659 12.70153961 5.49183655 13.52375793 C6.31147342 16.07694914 7.12483868 18.63208083 7.9375 21.1875 C8.7475191 23.72475505 9.55890932 26.26155615 10.37245178 28.79768372 C10.87783817 30.37417955 11.38109637 31.95135986 11.88182068 33.52934265 C13.04538289 37.16838128 14.27665794 40.7432023 15.67797852 44.2980957 C17 48 17 48 17 52 C5.78 52 -5.44 52 -17 52 C-15.23306286 44.93225145 -13.54012984 38.171579 -11.15234375 31.34765625 C-10.8949794 30.59963242 -10.63761505 29.85160858 -10.37245178 29.08091736 C-9.5655119 26.73978565 -8.75151311 24.40118029 -7.9375 22.0625 C-7.38953759 20.4734577 -6.84200883 18.8842658 -6.29492188 17.29492188 C-5.7686209 15.77069801 -5.24194192 14.24660461 -4.71484375 12.72265625 C-4.47209213 12.02052505 -4.22934052 11.31839386 -3.97923279 10.59498596 C-2.7363786 7.02623795 -1.43840819 3.4947271 0 0 Z " fill="#4161E8" transform="translate(911,473)"/>
<path d="M0 0 C2.07171305 3.10756957 3.03743404 5.75515611 4.20703125 9.29296875 C4.51590019 10.22163757 4.51590019 10.22163757 4.83100891 11.16906738 C5.496214 13.17368947 6.15466481 15.18044849 6.8125 17.1875 C7.26462018 18.55776161 7.71693154 19.92796015 8.16943359 21.2980957 C9.45438488 25.19611262 10.72865911 29.09752256 12 33 C12.31533691 33.96679688 12.63067383 34.93359375 12.95556641 35.9296875 C17 48.3905219 17 48.3905219 17 52 C5.78 52 -5.44 52 -17 52 C-13.73629284 40.40821249 -10.06068081 28.98348495 -6.25 17.5625 C-6.00003265 16.81187286 -5.75006531 16.06124573 -5.49252319 15.28787231 C-4.77315646 13.13000764 -4.05125031 10.97301398 -3.328125 8.81640625 C-3.10850601 8.15874268 -2.88888702 7.5010791 -2.66261292 6.82348633 C-1.87390585 4.48170039 -1.10661356 2.21322712 0 0 Z " fill="#4060E8" transform="translate(244,473)"/>
</svg>
